<?xml version="1.0" standalone="no"?>
<svg xmlns:xlink="http://www.w3.org/1999/xlink" id="wave" style="transform:rotate(180deg); transition: 0.3s" viewBox="0 0 1440 490" version="1.1" xmlns="http://www.w3.org/2000/svg"><defs><linearGradient id="sw-gradient-0" x1="0" x2="0" y1="1" y2="0"><stop stop-color="rgba(243, 106, 62, 1)" offset="0%"/><stop stop-color="rgba(255, 179, 11, 1)" offset="100%"/></linearGradient></defs><path style="transform:translate(0, 0px); opacity:1" fill="url(#sw-gradient-0)" d="M0,98L30,98C60,98,120,98,180,114.3C240,131,300,163,360,196C420,229,480,261,540,261.3C600,261,660,229,720,179.7C780,131,840,65,900,106.2C960,147,1020,294,1080,310.3C1140,327,1200,212,1260,212.3C1320,212,1380,327,1440,359.3C1500,392,1560,343,1620,326.7C1680,310,1740,327,1800,285.8C1860,245,1920,147,1980,89.8C2040,33,2100,16,2160,24.5C2220,33,2280,65,2340,106.2C2400,147,2460,196,2520,220.5C2580,245,2640,245,2700,220.5C2760,196,2820,147,2880,122.5C2940,98,3000,98,3060,98C3120,98,3180,98,3240,98C3300,98,3360,98,3420,138.8C3480,180,3540,261,3600,245C3660,229,3720,114,3780,89.8C3840,65,3900,131,3960,204.2C4020,278,4080,359,4140,392C4200,425,4260,408,4290,400.2L4320,392L4320,490L4290,490C4260,490,4200,490,4140,490C4080,490,4020,490,3960,490C3900,490,3840,490,3780,490C3720,490,3660,490,3600,490C3540,490,3480,490,3420,490C3360,490,3300,490,3240,490C3180,490,3120,490,3060,490C3000,490,2940,490,2880,490C2820,490,2760,490,2700,490C2640,490,2580,490,2520,490C2460,490,2400,490,2340,490C2280,490,2220,490,2160,490C2100,490,2040,490,1980,490C1920,490,1860,490,1800,490C1740,490,1680,490,1620,490C1560,490,1500,490,1440,490C1380,490,1320,490,1260,490C1200,490,1140,490,1080,490C1020,490,960,490,900,490C840,490,780,490,720,490C660,490,600,490,540,490C480,490,420,490,360,490C300,490,240,490,180,490C120,490,60,490,30,490L0,490Z"/></svg>